<svg xmlns="http://www.w3.org/2000/svg" viewBox="0 0 512 512">
  <defs>
    <linearGradient id="g1" x1="0" y1="0" x2="1" y2="1">
      <stop offset="0%" stop-color="hsl(262,83%,58%)"/>
      <stop offset="100%" stop-color="hsl(210,90%,55%)"/>
    </linearGradient>
    <filter id="glow" x="-50%" y="-50%" width="200%" height="200%">
      <feGaussianBlur stdDeviation="8" result="b"/>
      <feMerge>
        <feMergeNode in="b"/>
        <feMergeNode in="SourceGraphic"/>
      </feMerge>
    </filter>
  </defs>
  <rect width="512" height="512" rx="96" fill="#0c0d10"/>
  <g transform="translate(64 112)">
    <rect x="0" y="64" width="320" height="208" rx="28" fill="#151820" stroke="url(#g1)" stroke-width="4"/>
    <g transform="translate(0 -8)">
      <rect x="0" y="24" width="320" height="64" rx="20" fill="#1a1f2b" stroke="url(#g1)" stroke-width="3"/>
      <rect x="16" y="40" width="36" height="16" rx="8" fill="url(#g1)"/>
      <rect x="64" y="40" width="36" height="16" rx="8" fill="url(#g1)" opacity="0.9"/>
      <rect x="112" y="40" width="36" height="16" rx="8" fill="url(#g1)" opacity="0.8"/>
      <rect x="160" y="40" width="36" height="16" rx="8" fill="url(#g1)" opacity="0.7"/>
    </g>
    <g transform="translate(192 120) rotate(20)">
      <path d="M0 0 L96 0 L64 48 L-32 48 Z" fill="#0f1220" stroke="url(#g1)" stroke-width="3"/>
      <circle cx="16" cy="12" r="8" fill="url(#g1)"/>
    </g>
    <g transform="translate(196 176)">
      <path d="M0 64 L48 0 L88 40 L24 88 Z" fill="url(#g1)" filter="url(#glow)"/>
      <circle cx="16" cy="80" r="6" fill="#7ad8ff"/>
      <path d="M16 80 C40 88, 64 88, 96 80" stroke="url(#g1)" stroke-width="4" fill="none" opacity="0.8"/>
    </g>
    <g transform="translate(32 120)" opacity="0.6">
      <rect x="0" y="0" width="176" height="12" rx="6" fill="#aab1c7"/>
      <rect x="0" y="28" width="144" height="10" rx="5" fill="#7f89a8"/>
      <rect x="0" y="52" width="128" height="10" rx="5" fill="#5e6889"/>
    </g>
  </g>
</svg>
